<svg xmlns="http://www.w3.org/2000/svg" xmlns:xlink="http://www.w3.org/1999/xlink" width="432.5" height="464.812" viewBox="0 0 432.5 464.812">
  <defs>
    <linearGradient id="linear-gradient" x1="0.5" y1="1" x2="0.5" gradientUnits="objectBoundingBox">
      <stop offset="0" stop-color="gray" stop-opacity="0.251"/>
      <stop offset="0.54" stop-color="gray" stop-opacity="0.122"/>
      <stop offset="1" stop-color="gray" stop-opacity="0.102"/>
    </linearGradient>
    <linearGradient id="linear-gradient-2" x1="0.5" y1="1" x2="0.5" y2="0" xlink:href="#linear-gradient"/>
    <linearGradient id="linear-gradient-3" x1="1.241" y1="1.124" x2="1.241" y2="0.124" xlink:href="#linear-gradient"/>
    <filter id="Rectangle_36" x="108.396" y="0" width="205.566" height="356.564" filterUnits="userSpaceOnUse">
      <feOffset dy="3" input="SourceAlpha"/>
      <feGaussianBlur stdDeviation="3" result="blur"/>
      <feFlood flood-opacity="0.161"/>
      <feComposite operator="in" in2="blur"/>
      <feComposite in="SourceGraphic"/>
    </filter>
    <linearGradient id="linear-gradient-4" x1="0.5" x2="0.5" y2="1" gradientUnits="objectBoundingBox">
      <stop offset="0" stop-color="#984bdb"/>
      <stop offset="1" stop-color="#3b00ff"/>
    </linearGradient>
    <linearGradient id="linear-gradient-5" x1="0.5" y1="1" x2="0.5" y2="0" xlink:href="#linear-gradient"/>
    <linearGradient id="linear-gradient-6" x1="1.307" y1="2.047" x2="1.307" y2="1.047" gradientUnits="objectBoundingBox">
      <stop offset="0" stop-color="gray" stop-opacity="0.251"/>
      <stop offset="0.54" stop-color="#fff" stop-opacity="0.122"/>
      <stop offset="1" stop-color="gray" stop-opacity="0.102"/>
    </linearGradient>
    <filter id="Rectangle_39" x="168.941" y="405.555" width="194.983" height="59.256" filterUnits="userSpaceOnUse">
      <feOffset dy="3" input="SourceAlpha"/>
      <feGaussianBlur stdDeviation="3" result="blur-2"/>
      <feFlood flood-opacity="0.161"/>
      <feComposite operator="in" in2="blur-2"/>
      <feComposite in="SourceGraphic"/>
    </filter>
    <filter id="Rectangle_40" x="173.725" y="410.338" width="185.417" height="50.288" filterUnits="userSpaceOnUse">
      <feOffset dy="3" input="SourceAlpha"/>
      <feGaussianBlur stdDeviation="3" result="blur-3"/>
      <feFlood flood-opacity="0.161"/>
      <feComposite operator="in" in2="blur-3"/>
      <feComposite in="SourceGraphic"/>
    </filter>
    <linearGradient id="linear-gradient-7" x1="0.5" y1="1" x2="0.5" y2="0" xlink:href="#linear-gradient"/>
    <linearGradient id="linear-gradient-8" x1="0.5" y1="1" x2="0.5" y2="0" xlink:href="#linear-gradient"/>
    <linearGradient id="linear-gradient-9" x1="0.5" y1="1" x2="0.5" y2="0" xlink:href="#linear-gradient"/>
    <linearGradient id="linear-gradient-10" x1="0.5" x2="0.5" y2="1" gradientUnits="objectBoundingBox">
      <stop offset="0" stop-color="#00d36c"/>
      <stop offset="1" stop-color="#006a36"/>
    </linearGradient>
    <filter id="Ellipse_9" x="151.566" y="118.668" width="119.228" height="119.228" filterUnits="userSpaceOnUse">
      <feOffset dy="3" input="SourceAlpha"/>
      <feGaussianBlur stdDeviation="3" result="blur-4"/>
      <feFlood flood-opacity="0.161"/>
      <feComposite operator="in" in2="blur-4"/>
      <feComposite in="SourceGraphic"/>
    </filter>
    <linearGradient id="linear-gradient-11" x1="0.5" y1="1" x2="0.5" y2="0" xlink:href="#linear-gradient"/>
  </defs>
  <g id="Group_23" data-name="Group 23" transform="translate(-11057 7608.294)">
    <g id="undraw_confirmed_81ex" transform="translate(11057 -7607)">
      <circle id="Ellipse_4" data-name="Ellipse 4" cx="177.581" cy="177.581" r="177.581" transform="translate(38.669 58.937)" fill="none" stroke="#00ffa9" stroke-miterlimit="10" stroke-width="2" stroke-dasharray="12"/>
      <path id="Path_203" data-name="Path 203" d="M215.25,0C334.129,0,430.5,96.371,430.5,215.25S334.129,430.5,215.25,430.5,0,334.129,0,215.25,96.371,0,215.25,0Z" transform="translate(1 21.268)" fill="none" stroke="#00c4ff" stroke-width="2" stroke-dasharray="12"/>
      <path id="Path_190" data-name="Path 190" d="M675.849,549.807a48.557,48.557,0,0,0-96.265-9.052L430.35,536.706l1.638,25.639s-21.28,49.1,90.56,62.183v49.627H651.842V591.643A48.527,48.527,0,0,0,675.849,549.807Z" transform="translate(-315.537 -244.714)" fill="url(#linear-gradient)"/>
      <path id="Path_191" data-name="Path 191" d="M440.59,588.726s-20.377,47.02,86.728,59.564v47.546H651.141V569.922L439,564.17Z" transform="translate(-319.015 -270.019)" fill="#c18469"/>
      <path id="Path_192" data-name="Path 192" d="M472.207,224.168h0a22.829,22.829,0,0,1-31.391,7.133l-66.482-43.809A22.828,22.828,0,0,1,367.2,156.1h0a22.828,22.828,0,0,1,31.367-7.133l66.482,43.809a22.828,22.828,0,0,1,7.157,31.391Z" transform="translate(-288.747 -91.679)" fill="url(#linear-gradient-2)"/>
      <path id="Path_193" data-name="Path 193" d="M471.174,223.868h0A21.22,21.22,0,0,1,442,230.5l-61.819-40.754a21.22,21.22,0,0,1-6.631-29.178h0a21.22,21.22,0,0,1,29.178-6.631l61.807,40.73A21.22,21.22,0,0,1,471.174,223.868Z" transform="translate(-291.397 -94.771)" fill="#c18469"/>
      <circle id="Ellipse_6" data-name="Ellipse 6" cx="46.5" cy="46.5" r="46.5" transform="translate(262.122 260.195)" fill="#c18469"/>
      <rect id="Rectangle_35" data-name="Rectangle 35" width="192.78" height="347.964" rx="12.25" transform="translate(114.796)" fill="url(#linear-gradient-3)"/>
      <g transform="matrix(1, 0, 0, 1, 0, -1.29)" filter="url(#Rectangle_36)">
        <rect id="Rectangle_36-2" data-name="Rectangle 36" width="187.566" height="338.564" rx="13.64" transform="translate(117.4 6)" fill="#fff"/>
      </g>
      <path id="Path_194" data-name="Path 194" d="M578.739,94.28a15.205,15.205,0,0,1-14.99,12.933H498.971A15.2,15.2,0,0,1,483.988,94.28h-34.32a7.121,7.121,0,0,0-7.127,7.121V408.73a7.121,7.121,0,0,0,7.121,7.127H613.574a7.121,7.121,0,0,0,7.127-7.121V101.407a7.121,7.121,0,0,0-7.121-7.127Z" transform="translate(-320.438 -81.084)" fill="url(#linear-gradient-4)"/>
      <rect id="Rectangle_37" data-name="Rectangle 37" width="41.8" height="2.613" rx="1.306" transform="translate(190.546 17.244)" fill="#dbdbdb"/>
      <circle id="Ellipse_7" data-name="Ellipse 7" cx="1.567" cy="1.567" r="1.567" transform="translate(239.658 16.724)" fill="#dbdbdb"/>
      <path id="Path_195" data-name="Path 195" d="M766.078,487.813h0c-13.495,3.121-22.757-5.68-25.878-19.169L709.192,353.5a25.256,25.256,0,0,1,18.864-30.2h0a25.256,25.256,0,0,1,30.2,18.864l25.3,118.112C786.682,473.774,779.567,484.692,766.078,487.813Z" transform="translate(-427.398 -172.914)" fill="url(#linear-gradient-5)"/>
      <rect id="Rectangle_38" data-name="Rectangle 38" width="42.321" height="168.977" rx="21.16" transform="translate(281.381 160.981) rotate(-13.01)" fill="#c18469"/>
      <g transform="matrix(1, 0, 0, 1, 0, -1.29)" filter="url(#Rectangle_39)">
        <rect id="Rectangle_39-2" data-name="Rectangle 39" width="176.983" height="41.256" transform="translate(177.94 411.55)" opacity="0.37" fill="url(#linear-gradient-6)"/>
      </g>
      <g transform="matrix(1, 0, 0, 1, 0, -1.29)" filter="url(#Rectangle_40)">
        <rect id="Rectangle_40-2" data-name="Rectangle 40" width="167.417" height="32.287" transform="translate(182.72 416.34)" fill="#e6e6e6"/>
      </g>
      <path id="Path_196" data-name="Path 196" d="M444.109,441.082h0a22.553,22.553,0,0,1-31.014,7.049l-44.587-28.85a22.553,22.553,0,0,1-7.049-31.014h0a22.553,22.553,0,0,1,31.014-7.049l44.587,28.85a22.553,22.553,0,0,1,7.049,31.014Z" transform="translate(-286.455 -191.076)" fill="url(#linear-gradient-7)"/>
      <path id="Path_197" data-name="Path 197" d="M436.546,548.861h0a22.757,22.757,0,0,1-31.295,7.115l-27.618-20.138a22.757,22.757,0,0,1-7.115-31.295h0a22.757,22.757,0,0,1,31.295-7.115l27.618,20.144A22.757,22.757,0,0,1,436.546,548.861Z" transform="translate(-290.085 -241.789)" fill="url(#linear-gradient-8)"/>
      <g id="Group_22" data-name="Group 22" transform="translate(157.403 120.211)" opacity="0.5">
        <circle id="Ellipse_8" data-name="Ellipse 8" cx="53.777" cy="53.777" r="53.777" fill="url(#linear-gradient-9)"/>
      </g>
      <g transform="matrix(1, 0, 0, 1, 0, -1.29)" filter="url(#Ellipse_9)">
        <circle id="Ellipse_9-2" data-name="Ellipse 9" cx="50.614" cy="50.614" r="50.614" transform="translate(160.57 124.67)" fill="url(#linear-gradient-10)"/>
      </g>
      <path id="Path_198" data-name="Path 198" d="M310.46,264.8l18.978,17.4,26.888-39.54,9.495,7.91-36.383,47.451L302.55,267.97Z" transform="translate(-121.248 -97.57)" fill="#fff"/>
      <path id="Path_199" data-name="Path 199" d="M435.973,548.865h0a21.22,21.22,0,0,1-29.178,6.631l-25.758-18.751a21.22,21.22,0,0,1-6.631-29.178h0a21.22,21.22,0,0,1,29.178-6.631l25.752,18.787A21.22,21.22,0,0,1,435.973,548.865Z" transform="translate(-291.742 -243.294)" fill="#c18469"/>
      <path id="Path_200" data-name="Path 200" d="M443.435,440.95h0a21.22,21.22,0,0,1-29.178,6.631l-41.95-27.145a21.22,21.22,0,0,1-6.631-29.178h0a21.22,21.22,0,0,1,29.178-6.631l41.95,27.145A21.22,21.22,0,0,1,443.435,440.95Z" transform="translate(-288.232 -190.527)" fill="#c18469"/>
      <path id="Path_201" data-name="Path 201" d="M455.248,333.986h0a22.661,22.661,0,0,1-31.157,7.079l-56.5-36.79a22.661,22.661,0,0,1-7.079-31.157h0a22.661,22.661,0,0,1,31.157-7.079l56.5,36.79A22.661,22.661,0,0,1,455.248,333.986Z" transform="translate(-286.066 -140.757)" fill="url(#linear-gradient-11)"/>
      <path id="Path_202" data-name="Path 202" d="M454.417,333.832h0a21.22,21.22,0,0,1-29.178,6.631l-52.922-34.458a21.22,21.22,0,0,1-6.631-29.178h0a21.22,21.22,0,0,1,29.178-6.631l52.916,34.458A21.22,21.22,0,0,1,454.417,333.832Z" transform="translate(-288.236 -142.517)" fill="#c18469"/>
    </g>
  </g>
</svg>
