<svg width="110" height="181" viewBox="0 0 110 181" fill="none" xmlns="http://www.w3.org/2000/svg">
<path fill-rule="evenodd" clip-rule="evenodd" d="M85.1497 120.654C84.0783 137.453 80.6053 142.407 68.8366 143.92C64.9095 144.424 62.3484 144.921 63.1454 145.021C73.8263 146.384 77.0974 147.573 80.1473 151.202C83.6455 155.363 84.3179 157.947 85.3622 171.246L86.0607 180.139L86.2018 171.839C86.3863 160.947 87.7011 155.518 91.1925 151.231C94.1042 147.657 95.306 147.155 104.687 145.576L110 144.682L102.86 143.843C90.8486 142.428 87.2615 137.494 86.3998 121.199L85.8172 110.179L85.1497 120.654Z" fill="url(#paint0_radial_1104_327)"/>
<path fill-rule="evenodd" clip-rule="evenodd" d="M40.9588 20.2647C38.9776 51.2514 32.5554 60.3896 10.7929 63.1805C3.53098 64.1101 -1.20497 65.0266 0.268853 65.2125C20.0198 67.7257 26.0687 69.9195 31.7085 76.6124C38.1773 84.2875 39.4207 89.0557 41.3519 113.586L42.6435 129.99L42.9044 114.679C43.2456 94.5894 45.6769 84.574 52.1331 76.6671C57.5175 70.0748 59.7398 69.1473 77.0862 66.2361L86.9117 64.5869L73.7081 63.0384C51.4971 60.4291 44.8641 51.3279 43.2706 21.2708L42.1933 0.942596L40.9588 20.2647Z" fill="url(#paint1_linear_1104_327)"/>
<defs>
<radialGradient id="paint0_radial_1104_327" cx="0" cy="0" r="1" gradientUnits="userSpaceOnUse" gradientTransform="translate(55 90.5409) rotate(89.9289) scale(45.045 27.651)">
<stop stop-color="#D7FFD8" stop-opacity="0.68"/>
<stop offset="1" stop-color="#C1EBC2" stop-opacity="0.45"/>
</radialGradient>
<linearGradient id="paint1_linear_1104_327" x1="43.4558" y1="0.942596" x2="43.4558" y2="129.99" gradientUnits="userSpaceOnUse">
<stop stop-color="white"/>
<stop offset="1" stop-color="#A477CE" stop-opacity="0.5"/>
</linearGradient>
</defs>
</svg>
